<svg xmlns="http://www.w3.org/2000/svg" viewBox="0 0 64 64">
  <rect width="64" height="64" rx="14" fill="#2563eb"/>
  <path d="M18 20.5C18 12.492 24.492 6 32.5 6S47 12.492 47 20.5V24h1.5A5.5 5.5 0 0 1 54 29.5v19A5.5 5.5 0 0 1 48.5 54h-32A5.5 5.5 0 0 1 11 48.5v-19A5.5 5.5 0 0 1 16.5 24H18zm6 0V24h17v-3.5a8.5 8.5 0 1 0-17 0z" fill="#ffffff"/>
  <circle cx="32.5" cy="37" r="4.5" fill="#fbbf24"/>
  <path d="M32.5 40.5c1.38 0 2.5 1.12 2.5 2.5v4h-5v-4c0-1.38 1.12-2.5 2.5-2.5z" fill="#fbbf24"/>
</svg>
